<svg width="41" height="40" viewBox="0 0 41 40" fill="none" xmlns="http://www.w3.org/2000/svg">
<path d="M18.2016 3.58295C18.893 3.20105 19.6774 3 20.4758 3C21.2743 3 22.0586 3.20105 22.7501 3.58295L34.2016 9.9061C34.893 10.288 35.4672 10.8373 35.8664 11.4987C36.2656 12.1601 36.4758 12.9105 36.4758 13.6742V26.324C36.4758 27.0878 36.2656 27.8381 35.8664 28.4996C35.4672 29.161 34.893 29.7103 34.2016 30.0922L22.7501 36.417C22.0586 36.7989 21.2743 37 20.4758 37C19.6774 37 18.893 36.7989 18.2016 36.417L6.75011 30.0922C6.05866 29.7103 5.48447 29.161 5.08525 28.4996C4.68603 27.8381 4.47585 27.0878 4.47583 26.324V13.676C4.47553 12.9119 4.68556 12.1612 5.0848 11.4995C5.48403 10.8377 6.05839 10.2881 6.75011 9.9061L18.2016 3.58295Z" fill="#6B21A8"/>
<path d="M24.4758 17L19.4758 22L16.4758 19" stroke="#FAF5FF" stroke-width="2"/>
</svg>
