<svg width="40" height="41" viewBox="0 0 40 41" fill="none" xmlns="http://www.w3.org/2000/svg">
<path d="M20 9.5C20.3297 9.5 20.6533 9.575 20.9463 9.7168L21.0703 9.78125L28.9434 14.2451C29.2673 14.4289 29.5341 14.6918 29.7188 15.0059C29.9034 15.3199 30 15.6751 30 16.0352V24.9639C30 25.324 29.9034 25.6791 29.7188 25.9932C29.5341 26.3072 29.2673 26.5702 28.9434 26.7539L21.0703 31.2188C20.746 31.4026 20.3768 31.5 20 31.5C19.6232 31.5 19.254 31.4026 18.9297 31.2188L11.0566 26.7539C10.7327 26.5701 10.4659 26.3072 10.2812 25.9932C10.0967 25.6791 10 25.324 10 24.9639V16.0352C9.99994 15.6751 10.0967 15.3199 10.2812 15.0059C10.4659 14.6918 10.7327 14.4289 11.0566 14.2451L18.9297 9.78125C19.254 9.59738 19.6232 9.5 20 9.5Z" stroke="#020617" stroke-width="2"/>
<path d="M21 19.5H24V21.5H21V24.5H19V21.5H16V19.5H19V16.5H21V19.5Z" fill="#020617"/>
</svg>
