<svg width="40" height="41" viewBox="0 0 40 41" fill="none" xmlns="http://www.w3.org/2000/svg">
<path d="M20.0002 21.1665C20.3684 21.1665 20.6668 20.868 20.6668 20.4998C20.6668 20.1316 20.3684 19.8332 20.0002 19.8332C19.632 19.8332 19.3335 20.1316 19.3335 20.4998C19.3335 20.868 19.632 21.1665 20.0002 21.1665Z" fill="#020617"/>
<path d="M20.0002 16.4998C20.3684 16.4998 20.6668 16.2014 20.6668 15.8332C20.6668 15.465 20.3684 15.1665 20.0002 15.1665C19.632 15.1665 19.3335 15.465 19.3335 15.8332C19.3335 16.2014 19.632 16.4998 20.0002 16.4998Z" fill="#020617"/>
<path d="M20.0002 25.8332C20.3684 25.8332 20.6668 25.5347 20.6668 25.1665C20.6668 24.7983 20.3684 24.4998 20.0002 24.4998C19.632 24.4998 19.3335 24.7983 19.3335 25.1665C19.3335 25.5347 19.632 25.8332 20.0002 25.8332Z" fill="#020617"/>
<path d="M20.0002 21.1665C20.3684 21.1665 20.6668 20.868 20.6668 20.4998C20.6668 20.1316 20.3684 19.8332 20.0002 19.8332C19.632 19.8332 19.3335 20.1316 19.3335 20.4998C19.3335 20.868 19.632 21.1665 20.0002 21.1665Z" stroke="#020617" stroke-width="2" stroke-linecap="round" stroke-linejoin="round"/>
<path d="M20.0002 16.4998C20.3684 16.4998 20.6668 16.2014 20.6668 15.8332C20.6668 15.465 20.3684 15.1665 20.0002 15.1665C19.632 15.1665 19.3335 15.465 19.3335 15.8332C19.3335 16.2014 19.632 16.4998 20.0002 16.4998Z" stroke="#020617" stroke-width="2" stroke-linecap="round" stroke-linejoin="round"/>
<path d="M20.0002 25.8332C20.3684 25.8332 20.6668 25.5347 20.6668 25.1665C20.6668 24.7983 20.3684 24.4998 20.0002 24.4998C19.632 24.4998 19.3335 24.7983 19.3335 25.1665C19.3335 25.5347 19.632 25.8332 20.0002 25.8332Z" stroke="#020617" stroke-width="2" stroke-linecap="round" stroke-linejoin="round"/>
</svg>
